<svg
    xmlns="http://www.w3.org/2000/svg"
    width="126"
    height="126"
    fill="none"
    viewBox="0 0 126 126"
>
    <path
    fill="#93806E"
    fillOpacity="0.4"
    d="M0 99.75v-73.5A26.282 26.282 0 0126.25 0h73.5A26.281 26.281 0 01126 26.25v73.5A26.28 26.28 0 0199.75 126h-73.5A26.28 26.28 0 010 99.75zm115.5-73.5A15.749 15.749 0 0099.75 10.5h-73.5A15.75 15.75 0 0010.5 26.25v73.5a15.751 15.751 0 0015.75 15.75h73.5a15.75 15.75 0 0015.75-15.75v-73.5zM42 63a15.714 15.714 0 013.948-10.432c1.528-1.716 3.014-3.344 4.08-4.41l14.825-15.083a5.25 5.25 0 017.487 7.35l-14.853 15.12c-.981.987-2.315 2.457-3.675 3.985a5.25 5.25 0 000 6.945c1.355 1.523 2.689 2.993 3.639 3.949L72.34 85.575a5.25 5.25 0 01-7.487 7.35l-14.852-15.11c-1.05-1.05-2.52-2.661-4.037-4.373A15.698 15.698 0 0142 63z"
    ></path>
</svg>